<?xml version="1.0" encoding="UTF-8" standalone="no"?>
<svg
   width="1920"
   height="968"
   version="1.1"
   id="svg65"
   sodipodi:docname="snapshot (5).svg"
   inkscape:version="1.4.2 (ebf0e940, 2025-05-08)"
   xmlns:inkscape="http://www.inkscape.org/namespaces/inkscape"
   xmlns:sodipodi="http://sodipodi.sourceforge.net/DTD/sodipodi-0.dtd"
   xmlns:xlink="http://www.w3.org/1999/xlink"
   xmlns="http://www.w3.org/2000/svg"
   xmlns:svg="http://www.w3.org/2000/svg">
  <sodipodi:namedview
     id="namedview65"
     pagecolor="#ffffff"
     bordercolor="#000000"
     borderopacity="0.25"
     inkscape:showpageshadow="2"
     inkscape:pageopacity="0.0"
     inkscape:pagecheckerboard="0"
     inkscape:deskcolor="#d1d1d1"
     showguides="false"
     inkscape:zoom="1.3936901"
     inkscape:cx="1269.651"
     inkscape:cy="750.16677"
     inkscape:window-width="1472"
     inkscape:window-height="890"
     inkscape:window-x="0"
     inkscape:window-y="115"
     inkscape:window-maximized="1"
     inkscape:current-layer="svg65" />
  <title
     id="title1">Krona (snapshot) - f__Ophiocordycipitaceae</title>
  <defs
     id="defs2">
    <pattern
       inkscape:collect="always"
       xlink:href="#hiddenPattern"
       id="pattern68"
       patternTransform="translate(-450.41548,-38.947212)" />
    <pattern
       inkscape:collect="always"
       xlink:href="#hiddenPattern"
       id="pattern67"
       patternTransform="translate(-450.41548,-38.947212)" />
    <pattern
       inkscape:collect="always"
       xlink:href="#hiddenPattern"
       id="pattern66"
       patternTransform="translate(-450.41548,-38.947212)" />
    <pattern
       inkscape:collect="always"
       xlink:href="#hiddenPattern"
       id="pattern65"
       patternTransform="translate(-450.41548,-38.947212)" />
    <style
       type="text/css"
       id="style1">	text {font-size: 14px; font-family: sans-serif; dominant-baseline:central}	path {stroke-width:0.35000000000000003;}	path.wedge {stroke:none}	path.line {fill:none;stroke:black;}	line {stroke:black;stroke-width:0.35000000000000003;}	line.tick {stroke-width:0.7000000000000001;}	line.pattern {stroke-width:0.23333333333333334;}	circle {fill:none;stroke:black;stroke-width:0.35000000000000003;}	rect {stroke:black;stroke-width:0.35000000000000003;}	.highlight {stroke:black;stroke-width:1.75;}	.searchHighlight {fill:rgb(255, 255, 100);stroke:none;}	</style>
    <pattern
       id="hiddenPattern"
       patternUnits="userSpaceOnUse"
       x="0"
       y="0"
       width="8.4"
       height="8.4">
      <line
         class="pattern"
         x1="0"
         y1="0"
         x2="4.2"
         y2="4.2"
         id="line1" />
      <line
         class="pattern"
         x1="4.2"
         y1="8.4"
         x2="8.4"
         y2="4.2"
         id="line2" />
    </pattern>
  </defs>
  <path
     class="wedge"
     fill="rgb(220,220,220)"
     d=" M 897.2644537320676,572.6960809430382 L 934.0578149282708,838.7843237721524 A 358.15999999999997,358.15999999999997 0 0,1 885.0000000000001,842.16 L 885,573.54 A 89.53999999999999,89.53999999999999 0 0 0 897.2644537320676,572.6960809430382 Z "
     id="path2" />
  <path
     class="wedge"
     fill="rgb(212,127,127)"
     d=" M 885,573.54 L 885,842.16 A 358.15999999999997,358.15999999999997 0 1,1 1139.478419393173,736.0303943240821 L 948.6196048482933,547.0075985810205 A 89.53999999999999,89.53999999999999 0 1 0 885,573.54 Z "
     id="path3" />
  <path
     class="wedge"
     fill="rgb(212,127,127)"
     d=" M 1069.3889251172595,579.4419263799351 L 1203.0759079499035,648.6399173403722 A 358.15999999999997,358.15999999999997 0 0,1 1139.478419393173,736.0303943240821 L 1032.521396763054,630.1022741578271 A 207.62571376641012,207.62571376641012 0 0 0 1069.3889251172595,579.4419263799351 Z "
     id="path4" />
  <path
     class="wedge"
     fill="rgb(221,153,153)"
     d=" M 885,691.6257137664102 L 885,842.16 A 358.15999999999997,358.15999999999997 0 1,1 1200.2149508397938,313.9467131541808 L 1067.7304253907641,385.41993784987915 A 207.62571376641012,207.62571376641012 0 1 0 885,691.6257137664102 Z "
     id="path5" />
  <path
     class="wedge"
     fill="rgb(221,178,153)"
     d=" M 1067.7304253907641,385.41993784987915 L 1200.2149508397938,313.9467131541808 A 358.15999999999997,358.15999999999997 0 0,1 1237.0210655513608,417.97155909697324 L 1089.066967265785,445.7232461152162 A 207.62571376641012,207.62571376641012 0 0 0 1067.7304253907641,385.41993784987915 Z "
     id="path6" />
  <path
     class="wedge"
     fill="rgb(221,179,153)"
     d=" M 1089.066967265785,445.7232461152162 L 1237.0210655513608,417.97155909697324 A 358.15999999999997,358.15999999999997 0 0,1 1242.559460067355,463.26794471497107 L 1092.2775801608689,471.98160661045677 A 207.62571376641012,207.62571376641012 0 0 0 1089.066967265785,445.7232461152162 Z "
     id="path7" />
  <path
     class="wedge"
     fill="rgb(221,180,153)"
     d=" M 1092.2775801608689,471.98160661045677 L 1242.559460067355,463.26794471497107 A 358.15999999999997,358.15999999999997 0 0,1 1242.7221956409167,501.70356873180276 L 1092.371918137237,494.2627766756568 A 207.62571376641012,207.62571376641012 0 0 0 1092.2775801608689,471.98160661045677 Z "
     id="path8" />
  <path
     class="wedge"
     fill="rgb(221,181,153)"
     d=" M 1092.371918137237,494.2627766756568 L 1242.7221956409167,501.70356873180276 A 358.15999999999997,358.15999999999997 0 0,1 1240.4984983210281,527.5821441819238 L 1091.082838554809,509.2646130032458 A 207.62571376641012,207.62571376641012 0 0 0 1092.371918137237,494.2627766756568 Z "
     id="path9" />
  <path
     class="wedge"
     fill="rgb(221,181,153)"
     d=" M 1091.082838554809,509.2646130032458 L 1240.4984983210281,527.5821441819238 A 358.15999999999997,358.15999999999997 0 0,1 1237.0316105403062,549.9721970257019 L 1089.073080206528,522.2441492522884 A 207.62571376641012,207.62571376641012 0 0 0 1091.082838554809,509.2646130032458 Z "
     id="path10" />
  <path
     class="wedge"
     fill="rgb(221,183,153)"
     d=" M 1089.073080206528,522.2441492522884 L 1237.0316105403062,549.9721970257019 A 358.15999999999997,358.15999999999997 0 0,1 1203.0759079499035,648.6399173403722 L 1069.3889251172595,579.4419263799351 A 207.62571376641012,207.62571376641012 0 0 0 1089.073080206528,522.2441492522884 Z "
     id="path11" />
  <path
     class="wedge"
     fill="url(#hiddenPattern)"
     d=" M 1089.073080206528,522.2441492522884 L 1237.0316105403062,549.9721970257019 A 358.15999999999997,358.15999999999997 0 0,1 1203.0759079499035,648.6399173403722 L 1069.3889251172595,579.4419263799351 A 207.62571376641012,207.62571376641012 0 0 0 1089.073080206528,522.2441492522884 Z "
     id="path12" />
  <path
     class="wedge"
     fill="rgb(212,201,127)"
     d=" M 948.6196048482933,547.0075985810205 L 1139.478419393173,736.0303943240821 A 358.15999999999997,358.15999999999997 0 0,1 1028.7015903045292,812.0677346889652 L 920.9253975761324,566.0169336722413 A 89.53999999999999,89.53999999999999 0 0 0 948.6196048482933,547.0075985810205 Z "
     id="path13" />
  <path
     class="wedge"
     fill="rgb(212,201,127)"
     d=" M 974.9957478863964,671.1074621157036 L 1040.2451113991374,806.765458168419 A 358.15999999999997,358.15999999999997 0 0,1 1028.7015903045292,812.0677346889652 L 968.3039570480962,674.1811971703307 A 207.62571376641012,207.62571376641012 0 0 0 974.9957478863964,671.1074621157036 Z "
     id="path14" />
  <path
     class="wedge"
     fill="rgb(221,211,153)"
     d=" M 1032.521396763054,630.1022741578271 L 1139.478419393173,736.0303943240821 A 358.15999999999997,358.15999999999997 0 0,1 1081.4631671744312,783.4675433895826 L 998.8898964524258,657.6016373859043 A 207.62571376641012,207.62571376641012 0 0 0 1032.521396763054,630.1022741578271 Z "
     id="path15" />
  <path
     class="wedge"
     fill="rgb(203,221,153)"
     d=" M 998.8898964524258,657.6016373859043 L 1081.4631671744312,783.4675433895826 A 358.15999999999997,358.15999999999997 0 0,1 1040.2451113991374,806.765458168419 L 974.9957478863964,671.1074621157036 A 207.62571376641012,207.62571376641012 0 0 0 998.8898964524258,657.6016373859043 Z "
     id="path16" />
  <path
     class="wedge"
     fill="url(#hiddenPattern)"
     d=" M 998.8898964524258,657.6016373859043 L 1081.4631671744312,783.4675433895826 A 358.15999999999997,358.15999999999997 0 0,1 1040.2451113991374,806.765458168419 L 974.9957478863964,671.1074621157036 A 207.62571376641012,207.62571376641012 0 0 0 998.8898964524258,657.6016373859043 Z "
     id="path17" />
  <path
     class="wedge"
     fill="rgb(153,212,127)"
     d=" M 920.9253975761324,566.0169336722413 L 1028.7015903045292,812.0677346889652 A 358.15999999999997,358.15999999999997 0 0,1 969.1267861569174,832.1397269070399 L 906.0316965392294,571.03493172676 A 89.53999999999999,89.53999999999999 0 0 0 920.9253975761324,566.0169336722413 Z "
     id="path18" />
  <path
     class="wedge"
     fill="rgb(174,221,153)"
     d=" M 968.3039570480962,674.1811971703307 L 1028.7015903045292,812.0677346889652 A 358.15999999999997,358.15999999999997 0 0,1 1000.0059597388258,823.1934769781865 L 951.6690710245832,680.6308012131628 A 207.62571376641012,207.62571376641012 0 0 0 968.3039570480962,674.1811971703307 Z "
     id="path19" />
  <path
     class="wedge"
     fill="rgb(159,221,153)"
     d=" M 951.6690710245832,680.6308012131628 L 1000.0059597388258,823.1934769781865 A 358.15999999999997,358.15999999999997 0 0,1 979.7651295609892,829.3956511296703 L 939.9354413258508,684.2262078334035 A 207.62571376641012,207.62571376641012 0 0 0 951.6690710245832,680.6308012131628 Z "
     id="path20" />
  <path
     class="wedge"
     fill="rgb(153,221,156)"
     d=" M 939.9354413258508,684.2262078334035 L 979.7651295609892,829.3956511296703 A 358.15999999999997,358.15999999999997 0 0,1 969.1267861569174,832.1397269070399 L 933.7683829090466,685.8169513332512 A 207.62571376641012,207.62571376641012 0 0 0 939.9354413258508,684.2262078334035 Z "
     id="path21" />
  <path
     class="wedge"
     fill="url(#hiddenPattern)"
     d=" M 939.9354413258508,684.2262078334035 L 979.7651295609892,829.3956511296703 A 358.15999999999997,358.15999999999997 0 0,1 969.1267861569174,832.1397269070399 L 933.7683829090466,685.8169513332512 A 207.62571376641012,207.62571376641012 0 0 0 939.9354413258508,684.2262078334035 Z "
     id="path22" />
  <path
     class="wedge"
     fill="rgb(101,204,149)"
     d=" M 906.0316965392294,571.03493172676 L 969.1267861569174,832.1397269070399 A 358.15999999999997,358.15999999999997 0 0,1 955.9430939109528,835.0636167795542 L 902.7357734777382,571.7659041948885 A 89.53999999999999,89.53999999999999 0 0 0 906.0316965392294,571.03493172676 Z "
     id="path23" />
  <path
     class="wedge"
     fill="url(#hiddenPattern)"
     d=" M 906.0316965392294,571.03493172676 L 969.1267861569174,832.1397269070399 A 358.15999999999997,358.15999999999997 0 0,1 955.9430939109528,835.0636167795542 L 902.7357734777382,571.7659041948885 A 89.53999999999999,89.53999999999999 0 0 0 906.0316965392294,571.03493172676 Z "
     id="path24" />
  <rect
     fill="#65cc95"
     x="1427.0646"
     y="699.86609"
     width="28"
     height="28"
     id="rect24" />
  <rect
     fill="url(#hiddenPattern)"
     style="fill:url(#pattern65);stroke:none"
     x="1427.0646"
     y="699.86609"
     width="28"
     height="28"
     id="rect25" />
  <text
     x="1417.7312"
     y="713.86609"
     style="font-weight:normal"
     text-anchor="end"
     id="text25"><tspan
   style="font-style:italic"
   id="tspan73">Hirsutella</tspan>   0.6%</text>
  <path
     class="wedge"
     fill="rgb(101,183,204)"
     d=" M 902.7357734777382,571.7659041948885 L 955.9430939109528,835.0636167795542 A 358.15999999999997,358.15999999999997 0 0,1 944.8036184248983,837.1318632229172 L 899.9509046062245,572.2829658057293 A 89.53999999999999,89.53999999999999 0 0 0 902.7357734777382,571.7659041948885 Z "
     id="path26" />
  <path
     class="wedge"
     fill="url(#hiddenPattern)"
     d=" M 902.7357734777382,571.7659041948885 L 955.9430939109528,835.0636167795542 A 358.15999999999997,358.15999999999997 0 0,1 944.8036184248983,837.1318632229172 L 899.9509046062245,572.2829658057293 A 89.53999999999999,89.53999999999999 0 0 0 902.7357734777382,571.7659041948885 Z "
     id="path27" />
  <rect
     fill="#65b7cc"
     x="1427.0646"
     y="737.1994"
     width="28"
     height="28"
     id="rect27" />
  <rect
     fill="url(#hiddenPattern)"
     style="fill:url(#pattern66);stroke:none"
     x="1427.0646"
     y="737.1994"
     width="28"
     height="28"
     id="rect28" />
  <text
     x="1417.7312"
     y="751.1994"
     style="font-weight:normal"
     text-anchor="end"
     id="text28"><tspan
   style="font-style:italic"
   id="tspan74">Polycephalomyces</tspan>   0.5%</text>
  <path
     class="wedge"
     fill="rgb(127,138,212)"
     d=" M 899.9509046062245,572.2829658057293 L 944.8036184248983,837.1318632229172 A 358.15999999999997,358.15999999999997 0 0,1 940.5113563262896,837.8319868508438 L 898.8778390815725,572.457996712711 A 89.53999999999999,89.53999999999999 0 0 0 899.9509046062245,572.2829658057293 Z "
     id="path29" />
  <path
     class="wedge"
     fill="rgb(127,138,212)"
     d=" M 899.9509046062245,572.2829658057293 L 944.8036184248983,837.1318632229172 A 358.15999999999997,358.15999999999997 0 0,1 940.5113563262896,837.8319868508438 L 898.8778390815725,572.457996712711 A 89.53999999999999,89.53999999999999 0 0 0 899.9509046062245,572.2829658057293 Z "
     id="path30" />
  <rect
     fill="#7f8ad4"
     x="1427.0646"
     y="774.53271"
     width="28"
     height="28"
     id="rect30" />
  <text
     x="1417.7312"
     y="788.53271"
     style="font-weight:normal"
     text-anchor="end"
     id="text31"><tspan
   style="font-style:italic"
   id="tspan75">Hymenostilbe</tspan> sp. NHJ6452   0.2%</text>
  <path
     class="wedge"
     fill="rgb(150,101,204)"
     d=" M 898.8778390815725,572.457996712711 L 940.5113563262896,837.8319868508438 A 358.15999999999997,358.15999999999997 0 0,1 937.2301424115109,838.3311979259987 L 898.0575356028777,572.5827994814997 A 89.53999999999999,89.53999999999999 0 0 0 898.8778390815725,572.457996712711 Z "
     id="path32" />
  <path
     class="wedge"
     fill="url(#hiddenPattern)"
     d=" M 898.8778390815725,572.457996712711 L 940.5113563262896,837.8319868508438 A 358.15999999999997,358.15999999999997 0 0,1 937.2301424115109,838.3311979259987 L 898.0575356028777,572.5827994814997 A 89.53999999999999,89.53999999999999 0 0 0 898.8778390815725,572.457996712711 Z "
     id="path33" />
  <rect
     fill="#9665cc"
     x="1427.0646"
     y="811.86609"
     width="28"
     height="28"
     id="rect33" />
  <rect
     fill="url(#hiddenPattern)"
     style="fill:url(#pattern67);stroke:none"
     x="1427.0646"
     y="811.86609"
     width="28"
     height="28"
     id="rect34" />
  <text
     x="1417.7312"
     y="825.86609"
     style="font-weight:normal"
     text-anchor="end"
     id="text34"><tspan
   style="font-style:italic"
   id="tspan76">Pleurocordyceps</tspan>   0.1%</text>
  <path
     class="wedge"
     fill="rgb(204,101,203)"
     d=" M 898.0575356028777,572.5827994814997 L 937.2301424115109,838.3311979259987 A 358.15999999999997,358.15999999999997 0 0,1 934.1711814727684,838.7686295496997 L 897.2927953681921,572.6921573874249 A 89.53999999999999,89.53999999999999 0 0 0 898.0575356028777,572.5827994814997 Z "
     id="path35" />
  <path
     class="wedge"
     fill="url(#hiddenPattern)"
     d=" M 898.0575356028777,572.5827994814997 L 937.2301424115109,838.3311979259987 A 358.15999999999997,358.15999999999997 0 0,1 934.1711814727684,838.7686295496997 L 897.2927953681921,572.6921573874249 A 89.53999999999999,89.53999999999999 0 0 0 898.0575356028777,572.5827994814997 Z "
     id="path36" />
  <rect
     fill="#cc65cb"
     x="1427.0646"
     y="849.1994"
     width="28"
     height="28"
     id="rect36" />
  <rect
     fill="url(#hiddenPattern)"
     style="fill:url(#pattern68);stroke:none"
     x="1427.0646"
     y="849.1994"
     width="28"
     height="28"
     id="rect37" />
  <text
     x="1417.7312"
     y="863.1994"
     style="font-weight:normal"
     text-anchor="end"
     id="text37"><tspan
   style="font-style:italic"
   id="tspan77">Paraisaria</tspan>   0.1%</text>
  <path
     class="wedge"
     fill="rgb(212,127,175)"
     d=" M 897.2927953681921,572.6921573874249 L 934.1711814727684,838.7686295496997 A 358.15999999999997,358.15999999999997 0 0,1 934.0578149282708,838.7843237721524 L 897.2644537320676,572.6960809430382 A 89.53999999999999,89.53999999999999 0 0 0 897.2927953681921,572.6921573874249 Z "
     id="path38" />
  <path
     class="wedge"
     fill="rgb(212,127,175)"
     d=" M 897.2927953681921,572.6921573874249 L 934.1711814727684,838.7686295496997 A 358.15999999999997,358.15999999999997 0 0,1 934.0578149282708,838.7843237721524 L 897.2644537320676,572.6960809430382 A 89.53999999999999,89.53999999999999 0 0 0 897.2927953681921,572.6921573874249 Z "
     id="path39" />
  <rect
     fill="#d47faf"
     x="1427.0646"
     y="886.53271"
     width="28"
     height="28"
     id="rect39" />
  <text
     x="1417.7312"
     y="900.53271"
     style="font-weight:normal"
     text-anchor="end"
     id="text40"><tspan
   style="font-style:italic"
   id="tspan78">Drechmeria zeospora</tspan>   0.005%</text>
  <circle
     cx="885"
     cy="484"
     r="89.53999999999999"
     id="circle40" />
  <circle
     cx="885"
     cy="484"
     r="358.15999999999997"
     id="circle41" />
  <text
     x="885"
     y="484"
     text-anchor="middle"
     style="font-weight:bold"
     id="text41">Ophiocordycipitaceae</text>
  <text
     x="1108.85"
     y="484"
     text-anchor="start"
     style="font-weight:normal"
     transform="rotate(86.063673,885,484)"
     id="text42">2%  other Ophiocordycipitaceae]</text>
  <path
     class="line"
     d=" M 948.6196048482933,547.0075985810205 A 89.53999999999999,89.53999999999999 0 1 0 885,573.54"
     id="path42" />
  <line
     x1="1139.478419393173"
     y1="736.0303943240821"
     x2="948.6196048482933"
     y2="547.0075985810205"
     id="line42" />
  <text
     x="876.74713"
     y="365.202"
     text-anchor="middle"
     style="font-weight:normal"
     transform="rotate(-0.50000808)"
     id="text43"><tspan
       sodipodi:role="line"
       id="tspan70"
       x="876.74713"
       y="365.202"
       style="font-style:italic;font-variant:normal;font-weight:bold;font-stretch:normal;font-family:sans-serif;-inkscape-font-specification:'sans-serif Bold Italic'">Ophiocordyceps</tspan></text>
  <path
     class="line"
     d=" M 1067.7304253907641,385.41993784987915 A 207.62571376641012,207.62571376641012 0 1 0 885,691.6257137664102"
     id="path43" />
  <line
     x1="1200.2149508397938"
     y1="313.9467131541808"
     x2="1067.7304253907641"
     y2="385.41993784987915"
     id="line43" />
  <text
     x="884.18231"
     y="-93.046928"
     text-anchor="end"
     style="font-weight:normal;white-space:pre;inline-size:393.924;display:inline"
     transform="matrix(1.1189348,0.00301676,-0.00301676,1.1189348,79.214141,330.14115)"
     id="text44"
     xml:space="preserve"><tspan
       x="884.18231"
       y="-93.046928"
       id="tspan2"><tspan
   style="font-style:italic;font-weight:bold;-inkscape-font-specification:'sans-serif Bold Italic'"
   id="tspan1">Ophiocordyceps camponoti-nidulantis  </tspan>67%</tspan></text>
  <path
     class="line"
     d=" M 1089.066967265785,445.7232461152162 A 207.62571376641012,207.62571376641012 0 0 0 1067.7304253907641,385.41993784987915"
     id="path44" />
  <line
     x1="1237.0210655513608"
     y1="417.97155909697324"
     x2="1089.066967265785"
     y2="445.7232461152162"
     id="line44" />
  <text
     x="894.14325"
     y="754.89282"
     text-anchor="start"
     style="font-style:italic;font-variant:normal;font-weight:normal;font-stretch:normal;font-family:sans-serif;-inkscape-font-specification:'sans-serif Italic'"
     transform="rotate(-19.484819)"
     id="text45"><tspan
       style="font-style:italic;font-variant:normal;font-weight:bold;font-stretch:normal;font-family:sans-serif;-inkscape-font-specification:'sans-serif Bold Italic'"
       id="tspan71">5%   Ophiocordyceps kniphofioides</tspan></text>
  <path
     class="line"
     d=" M 1092.2775801608689,471.98160661045677 A 207.62571376641012,207.62571376641012 0 0 0 1089.066967265785,445.7232461152162"
     id="path45" />
  <line
     x1="1242.559460067355"
     y1="463.26794471497107"
     x2="1092.2775801608689"
     y2="471.98160661045677"
     id="line45" />
  <text
     x="1038.1482"
     y="589.42157"
     text-anchor="start"
     style="font-style:italic;font-variant:normal;font-weight:normal;font-stretch:normal;font-family:sans-serif;-inkscape-font-specification:'sans-serif Italic'"
     transform="rotate(-6.9709607)"
     id="text46"><tspan
       style="font-style:italic;font-variant:normal;font-weight:bold;font-stretch:normal;font-family:sans-serif;-inkscape-font-specification:'sans-serif Bold Italic'"
       id="tspan88">2%  Ophiocordyceps satoi</tspan></text>
  <path
     class="line"
     d=" M 1092.371918137237,494.2627766756568 A 207.62571376641012,207.62571376641012 0 0 0 1092.2775801608689,471.98160661045677"
     id="path46" />
  <line
     x1="1242.7221956409167"
     y1="501.70356873180276"
     x2="1092.371918137237"
     y2="494.2627766756568"
     id="line46" />
  <text
     x="1100.9089"
     y="487.52222"
     text-anchor="start"
     style="font-style:italic;font-variant:normal;font-weight:normal;font-stretch:normal;font-family:sans-serif;-inkscape-font-specification:'sans-serif Italic'"
     transform="rotate(-0.2425876)"
     id="text47"><tspan
       style="font-style:italic;font-variant:normal;font-weight:bold;font-stretch:normal;font-family:sans-serif;-inkscape-font-specification:'sans-serif Bold Italic'"
       id="tspan87">2%  Ophiocordyceps ovatsospora</tspan></text>
  <path
     class="line"
     d=" M 1091.082838554809,509.2646130032458 A 207.62571376641012,207.62571376641012 0 0 0 1092.371918137237,494.2627766756568"
     id="path47" />
  <line
     x1="1240.4984983210281"
     y1="527.5821441819238"
     x2="1091.082838554809"
     y2="509.2646130032458"
     id="line47" />
  <text
     x="1141.5184"
     y="406.22754"
     text-anchor="start"
     style="font-style:italic;font-variant:normal;font-weight:normal;font-stretch:normal;font-family:sans-serif;-inkscape-font-specification:'sans-serif Italic'"
     transform="rotate(4.9112546)"
     id="text48"><tspan
       style="font-style:italic;font-variant:normal;font-weight:bold;font-stretch:normal;font-family:sans-serif;-inkscape-font-specification:'sans-serif Bold Italic'"
       id="tspan86">1%  Ophiocordyceps camponoti-rufipedis</tspan></text>
  <path
     class="line"
     d=" M 1089.073080206528,522.2441492522884 A 207.62571376641012,207.62571376641012 0 0 0 1091.082838554809,509.2646130032458"
     id="path48" />
  <line
     x1="1237.0316105403062"
     y1="549.9721970257019"
     x2="1089.073080206528"
     y2="522.2441492522884"
     id="line48" />
  <text
     x="1167.7532"
     y="344.17004"
     text-anchor="start"
     style="font-style:italic;font-variant:normal;font-weight:normal;font-stretch:normal;font-family:sans-serif;-inkscape-font-specification:'sans-serif Italic'"
     transform="rotate(8.8018105)"
     id="text49"><tspan
       style="font-style:italic;font-variant:normal;font-weight:bold;font-stretch:normal;font-family:sans-serif;-inkscape-font-specification:'sans-serif Bold Italic'"
       id="tspan85">1%  Ophiocordyceps nigrella</tspan></text>
  <line
     x1="1232.6599999999999"
     y1="484"
     x2="1253.6599999999999"
     y2="484"
     class="tick"
     transform="rotate(378.99048975232665,885,484)"
     id="line49" />
  <text
     x="1257.16"
     y="484"
     text-anchor="start"
     style="font-weight:normal;white-space:pre;inline-size:212.484;display:inline"
     transform="rotate(18.99049,880.39157,475.30726)"
     id="text50"
     xml:space="preserve"><tspan
       x="1257.16"
       y="484"
       id="tspan4"><tspan
         style="font-style:italic;font-weight:bold;-inkscape-font-specification:'sans-serif Bold Italic'"
         id="tspan3">47 more Ophiocordyceps</tspan></tspan></text>
  <path
     class="line"
     d=" M 1069.3889251172595,579.4419263799351 A 207.62571376641012,207.62571376641012 0 0 0 1089.073080206528,522.2441492522884"
     id="path50" />
  <line
     x1="1203.0759079499035"
     y1="648.6399173403722"
     x2="1069.3889251172595"
     y2="579.4419263799351"
     id="line50" />
  <path
     class="line"
     d=" M 920.9253975761324,566.0169336722413 A 89.53999999999999,89.53999999999999 0 0 0 948.6196048482933,547.0075985810205"
     id="path51" />
  <line
     x1="1028.7015903045292"
     y1="812.0677346889652"
     x2="920.9253975761324"
     y2="566.0169336722413"
     id="line51" />
  <text
     x="1057.5577"
     y="-431.15436"
     text-anchor="middle"
     style="font-weight:normal"
     transform="rotate(54.166689)"
     id="text51">Tolypocladium</text>
  <path
     class="line"
     d=" M 998.8898964524258,657.6016373859043 A 207.62571376641012,207.62571376641012 0 0 0 1032.521396763054,630.1022741578271"
     id="path52" />
  <line
     x1="1081.4631671744312"
     y1="783.4675433895826"
     x2="998.8898964524258"
     y2="657.6016373859043"
     id="line53" />
  <text
     x="1152.0265"
     y="-376.16931"
     text-anchor="start"
     style="font-weight:normal"
     transform="rotate(50.728271)"
     id="text53"><tspan
       style="font-style:italic;font-variant:normal;font-weight:normal;font-stretch:normal;font-family:sans-serif;-inkscape-font-specification:'sans-serif Italic'"
       id="tspan72">3%  Tolypocladium sp. RG-2013a</tspan></text>
  <line
     x1="1232.6599999999999"
     y1="484"
     x2="1253.6599999999999"
     y2="484"
     class="tick"
     transform="rotate(420.5233179067284,885,484)"
     id="line54" />
  <text
     x="1257.1599999999999"
     y="484"
     text-anchor="start"
     style="font-color:black;font-weight:normal"
     transform="rotate(420.5233179067284,885,484)"
     id="text54">11 more</text>
  <path
     class="line"
     d=" M 974.9957478863964,671.1074621157036 A 207.62571376641012,207.62571376641012 0 0 0 998.8898964524258,657.6016373859043"
     id="path54" />
  <line
     x1="1040.2451113991374"
     y1="806.765458168419"
     x2="974.9957478863964"
     y2="671.1074621157036"
     id="line55" />
  <path
     class="line"
     d=" M 906.0316965392294,571.03493172676 A 89.53999999999999,89.53999999999999 0 0 0 920.9253975761324,566.0169336722413"
     id="path55" />
  <line
     x1="969.1267861569174"
     y1="832.1397269070399"
     x2="906.0316965392294"
     y2="571.03493172676"
     id="line56" />
  <text
     x="874.72919"
     y="-705.36798"
     text-anchor="middle"
     style="font-weight:normal"
     transform="rotate(72.80013)"
     id="text56">Purpureocillium</text>
  <path
     class="line"
     d=" M 951.6690710245832,680.6308012131628 A 207.62571376641012,207.62571376641012 0 0 0 968.3039570480962,674.1811971703307"
     id="path57" />
  <line
     x1="1000.0059597388258"
     y1="823.1934769781865"
     x2="951.6690710245832"
     y2="680.6308012131628"
     id="line58" />
  <text
     x="986.13275"
     y="-649.55945"
     text-anchor="start"
     style="font-weight:normal"
     transform="rotate(68.807913)"
     id="text58">1%  <tspan
   style="font-style:italic"
   id="tspan81">Purpureocillium atypicola</tspan></text>
  <path
     class="line"
     d=" M 939.9354413258508,684.2262078334035 A 207.62571376641012,207.62571376641012 0 0 0 951.6690710245832,680.6308012131628"
     id="path58" />
  <line
     x1="979.7651295609892"
     y1="829.3956511296703"
     x2="939.9354413258508"
     y2="684.2262078334035"
     id="line59" />
  <text
     x="937.42963"
     y="-703.0437"
     text-anchor="start"
     style="font-weight:normal"
     transform="rotate(72.963942)"
     id="text59"><tspan
       style="font-style:italic"
       id="tspan80"><tspan
   style="font-style:normal"
   id="tspan83">0.9% </tspan>Purpureocillium lavendulum</tspan></text>
  <path
     class="line"
     d=" M 933.7683829090466,685.8169513332512 A 207.62571376641012,207.62571376641012 0 0 0 939.9354413258508,684.2262078334035"
     id="path59" />
  <path
     class="line"
     d=" M 902.7357734777382,571.7659041948885 A 89.53999999999999,89.53999999999999 0 0 0 906.0316965392294,571.03493172676"
     id="path60" />
  <line
     x1="955.9430939109528"
     y1="835.0636167795542"
     x2="902.7357734777382"
     y2="571.7659041948885"
     id="line60" />
  <path
     class="line"
     d=" M 899.9509046062245,572.2829658057293 A 89.53999999999999,89.53999999999999 0 0 0 902.7357734777382,571.7659041948885"
     id="path61" />
  <line
     x1="944.8036184248983"
     y1="837.1318632229172"
     x2="899.9509046062245"
     y2="572.2829658057293"
     id="line61" />
  <line
     x1="940.5113563262896"
     y1="837.8319868508438"
     x2="898.8778390815725"
     y2="572.457996712711"
     id="line62" />
  <path
     class="line"
     d=" M 898.8778390815725,572.457996712711 A 89.53999999999999,89.53999999999999 0 0 0 899.9509046062245,572.2829658057293"
     id="path62" />
  <path
     class="line"
     d=" M 898.0575356028777,572.5827994814997 A 89.53999999999999,89.53999999999999 0 0 0 898.8778390815725,572.457996712711"
     id="path63" />
  <line
     x1="937.2301424115109"
     y1="838.3311979259987"
     x2="898.0575356028777"
     y2="572.5827994814997"
     id="line63" />
  <path
     class="line"
     d=" M 897.2927953681921,572.6921573874249 A 89.53999999999999,89.53999999999999 0 0 0 898.0575356028777,572.5827994814997"
     id="path64" />
  <line
     x1="934.1711814727684"
     y1="838.7686295496997"
     x2="897.2927953681921"
     y2="572.6921573874249"
     id="line64" />
  <line
     x1="934.0578149282708"
     y1="838.7843237721524"
     x2="897.2644537320676"
     y2="572.6960809430382"
     id="line65" />
  <path
     class="line"
     d=" M 897.2644537320676,572.6960809430382 A 89.53999999999999,89.53999999999999 0 0 0 897.2927953681921,572.6921573874249"
     id="path65" />
</svg>
